<svg width="1440" height="245" viewBox="0 0 1440 245" fill="none" xmlns="http://www.w3.org/2000/svg">
    <g clip-path="url(#clip0_248_2059)">
        <rect width="1440" height="245" fill="#22A5AD"/>
        <path opacity="0.1" d="M24.8734 47.8L23.9734 43C28.5068 42.6667 32.1734 41.9667 34.9734 40.9C37.8401 39.8333 39.9068 38.5667 41.1734 37.1C42.5068 35.5667 43.1734 34.0333 43.1734 32.5C43.1734 31.3 42.9068 30.3 42.3734 29.5C41.8401 28.7 41.0401 28.3 39.9734 28.3C38.9734 28.3 38.1401 28.6667 37.4734 29.4C36.8068 30.0667 36.4734 30.9 36.4734 31.9C36.4734 33.1667 37.0068 34.3667 38.0734 35.5C39.1401 36.5667 40.4734 37.3667 42.0734 37.9L38.9734 41.1C36.8401 40.3 35.0068 39.1333 33.4734 37.6C32.0068 36.0667 31.2734 34.1667 31.2734 31.9C31.2734 29.5667 32.0734 27.5333 33.6734 25.8C35.3401 24.0667 37.5068 23.2 40.1734 23.2C42.8401 23.2 44.8401 24.1333 46.1734 26C47.5734 27.8 48.2734 29.8667 48.2734 32.2C48.2734 35.1333 47.3068 37.7333 45.3734 40C43.4401 42.2667 40.7068 44.0667 37.1734 45.4C33.7068 46.7333 29.6068 47.5333 24.8734 47.8ZM32.8429 101.3C31.4429 100.9 30.0762 100.3 28.7429 99.5C27.4762 98.6333 26.3095 97.5667 25.2429 96.3C24.2429 95.0333 23.4429 93.6 22.8429 92C22.2429 90.3333 21.9429 88.5667 21.9429 86.7C21.9429 83.3 22.7095 80.4 24.2429 78C25.8429 75.5333 27.9095 73.6667 30.4429 72.4C33.0429 71.1333 35.8762 70.5 38.9429 70.5C40.0762 70.5 41.3095 70.6333 42.6429 70.9C43.9762 71.1 45.2429 71.3667 46.4429 71.7L45.1429 79.2C44.1429 78.9333 43.0762 78.7333 41.9429 78.6C40.8095 78.4 39.8095 78.3 38.9429 78.3C36.9429 78.3 35.2429 78.7 33.8429 79.5C32.5095 80.2333 31.5095 81.2333 30.8429 82.5C30.1762 83.7667 29.8429 85.1667 29.8429 86.7C29.8429 88.8333 30.4762 90.7667 31.7429 92.5C33.0095 94.1667 34.5429 95.5 36.3429 96.5C38.1429 97.5 39.8762 98 41.5429 98L32.8429 101.3ZM20.2429 111.8L17.9429 104.2C20.6095 103.6 23.7762 102.767 27.4429 101.7C31.1762 100.633 35.0762 99.4333 39.1429 98.1C43.2095 96.7 47.1095 95.2333 50.8429 93.7L53.8429 101C51.9095 101.8 49.4762 102.733 46.5429 103.8C43.6762 104.8 40.6095 105.8 37.3429 106.8C34.1429 107.867 31.0429 108.833 28.0429 109.7C25.0429 110.633 22.4429 111.333 20.2429 111.8ZM85.699 106.5C80.3657 106.5 76.2657 105.9 73.399 104.7C70.599 103.5 68.6657 101.633 67.599 99.1C66.5323 96.5667 65.9323 93.3 65.799 89.3L63.799 34.6H71.999L73.999 86.1C74.1323 89.3667 74.4323 91.9 74.899 93.7C75.4323 95.4333 76.5657 96.6333 78.299 97.3C80.099 97.9667 82.899 98.3 86.699 98.3C88.099 98.3 89.099 98.7 89.699 99.5C90.3657 100.233 90.699 101.133 90.699 102.2C90.699 103.267 90.2323 104.267 89.299 105.2C88.3657 106.067 87.1657 106.5 85.699 106.5ZM102.615 55.8V50.2L125.015 43.6V49.3L102.615 55.8ZM84.1863 106.5L85.1863 98.3C87.0529 98.3 88.5196 97.9 89.5863 97.1C90.7196 96.3 91.7863 94.9667 92.7863 93.1C93.8529 91.2333 95.1863 88.7333 96.7863 85.6C98.3863 82.4 99.9863 79.8 101.586 77.8C103.253 75.7333 104.853 74.1333 106.386 73C107.986 71.8 109.486 70.9667 110.886 70.5C112.286 70.0333 113.586 69.8 114.786 69.8C116.986 69.8 118.953 70.3 120.686 71.3C122.42 72.2333 124.053 73.8667 125.586 76.2C127.12 78.4667 128.686 81.6 130.286 85.6C131.82 89.2667 133.186 92.0333 134.386 93.9C135.653 95.7 136.953 96.9 138.286 97.5C139.686 98.0333 141.253 98.3 142.986 98.3C144.386 98.3 145.386 98.7 145.986 99.5C146.653 100.233 146.986 101.133 146.986 102.2C146.986 103.267 146.52 104.267 145.586 105.2C144.653 106.067 143.453 106.5 141.986 106.5C139.386 106.5 136.986 106.067 134.786 105.2C132.653 104.333 130.853 102.967 129.386 101.1L130.786 99C130.053 101.067 129.053 102.767 127.786 104.1C126.586 105.367 125.22 106.3 123.686 106.9C122.153 107.567 120.52 107.9 118.786 107.9C116.586 107.9 114.32 107.433 111.986 106.5C109.72 105.567 107.52 104.233 105.386 102.5C103.253 100.767 101.386 98.7333 99.7863 96.4C98.0529 99.4667 96.3863 101.733 94.7863 103.2C93.2529 104.6 91.6529 105.5 89.9863 105.9C88.3196 106.3 86.3863 106.5 84.1863 106.5ZM103.586 88.8C104.72 90.6667 105.92 92.3 107.186 93.7C108.52 95.1 109.853 96.2667 111.186 97.2C112.52 98.0667 113.82 98.7333 115.086 99.2C116.42 99.6 117.62 99.8 118.686 99.8C121.02 99.8 122.72 98.9667 123.786 97.3C124.92 95.6333 124.886 93.3 123.686 90.3C123.086 88.7667 122.453 87.2667 121.786 85.8C121.186 84.3333 120.52 83 119.786 81.8C119.053 80.5333 118.22 79.5667 117.286 78.9C116.353 78.1667 115.32 77.8 114.186 77.8C113.186 77.8 112.12 78.1333 110.986 78.8C109.92 79.4667 108.753 80.6 107.486 82.2C106.286 83.8 104.986 86 103.586 88.8ZM143.484 19.8V14.2L165.884 7.6V13.3L143.484 19.8ZM140.484 106.5L141.384 98.3C145.184 98.3 147.851 97.9333 149.384 97.2C150.918 96.4667 151.784 95.1667 151.984 93.3C152.251 91.4333 152.318 88.8333 152.184 85.5L150.484 34.6H158.784L160.384 85.3C160.518 88.7 161.051 91.3667 161.984 93.3C162.984 95.1667 164.318 96.4667 165.984 97.2C167.651 97.9333 169.484 98.3 171.484 98.3C172.884 98.3 173.884 98.7 174.484 99.5C175.151 100.233 175.484 101.133 175.484 102.2C175.484 103.267 175.018 104.267 174.084 105.2C173.151 106.067 171.951 106.5 170.484 106.5C167.684 106.5 165.351 106.067 163.484 105.2C161.684 104.267 160.251 103.1 159.184 101.7C158.184 100.233 157.518 98.7 157.184 97.1L159.284 97.3C158.618 99.3 157.518 101 155.984 102.4C154.518 103.733 152.518 104.767 149.984 105.5C147.451 106.167 144.284 106.5 140.484 106.5ZM182.269 52.8L181.369 48C185.902 47.6667 189.569 46.9667 192.369 45.9C195.235 44.8333 197.302 43.5667 198.569 42.1C199.902 40.5667 200.569 39.0333 200.569 37.5C200.569 36.3 200.302 35.3 199.769 34.5C199.235 33.7 198.435 33.3 197.369 33.3C196.369 33.3 195.535 33.6667 194.869 34.4C194.202 35.0667 193.869 35.9 193.869 36.9C193.869 38.1667 194.402 39.3667 195.469 40.5C196.535 41.5667 197.869 42.3667 199.469 42.9L196.369 46.1C194.235 45.3 192.402 44.1333 190.869 42.6C189.402 41.0667 188.669 39.1667 188.669 36.9C188.669 34.5667 189.469 32.5333 191.069 30.8C192.735 29.0667 194.902 28.2 197.569 28.2C200.235 28.2 202.235 29.1333 203.569 31C204.969 32.8 205.669 34.8667 205.669 37.2C205.669 40.1333 204.702 42.7333 202.769 45C200.835 47.2667 198.102 49.0667 194.569 50.4C191.102 51.7333 187.002 52.5333 182.269 52.8ZM168.951 106.5L169.951 98.3C173.951 98.3 177.717 97.9333 181.251 97.2C184.784 96.4 188.017 95.3667 190.951 94.1C193.951 92.7667 196.517 91.2667 198.651 89.6C200.784 87.8667 202.417 86.1 203.551 84.3C204.751 82.4333 205.351 80.6 205.351 78.8C205.351 77.9333 205.051 77.0667 204.451 76.2C203.851 75.2667 202.817 74.5 201.351 73.9C199.951 73.3 198.051 73 195.651 73C194.184 73 192.551 73.2 190.751 73.6C188.951 74 187.217 74.5667 185.551 75.3C183.951 75.9667 182.617 76.7333 181.551 77.6C183.351 79.0667 185.017 80.5 186.551 81.9C188.151 83.3 189.784 84.8333 191.451 86.5C193.117 88.1 194.917 89.9333 196.851 92C198.384 93.1333 200.084 94.1 201.951 94.9C203.884 95.7 205.951 96.3667 208.151 96.9C210.417 97.3667 212.717 97.7333 215.051 98C217.384 98.2 219.717 98.3 222.051 98.3C223.451 98.3 224.451 98.7 225.051 99.5C225.717 100.233 226.051 101.133 226.051 102.2C226.051 103.267 225.584 104.267 224.651 105.2C223.717 106.067 222.517 106.5 221.051 106.5C217.384 106.5 213.617 106.167 209.751 105.5C205.951 104.767 202.384 103.7 199.051 102.3C195.717 100.833 192.884 99 190.551 96.8C189.417 95.3333 188.151 93.8667 186.751 92.4C185.351 90.9333 183.817 89.4667 182.151 88C180.551 86.4667 178.817 85.0333 176.951 83.7C176.551 83.3667 176.151 82.7667 175.751 81.9C175.351 81.0333 175.017 80.1333 174.751 79.2C174.484 78.2667 174.351 77.5667 174.351 77.1C174.351 76.1 174.984 74.9 176.251 73.5C177.517 72.1 179.217 70.7667 181.351 69.5C183.484 68.1667 185.917 67.0667 188.651 66.2C191.384 65.3333 194.217 64.9 197.151 64.9C200.951 64.9 204.017 65.4667 206.351 66.6C208.751 67.7333 210.484 69.2 211.551 71C212.684 72.7333 213.251 74.6 213.251 76.6C213.251 79.5333 212.517 82.4667 211.051 85.4C209.584 88.2667 207.484 90.9667 204.751 93.5C202.017 96.0333 198.817 98.3 195.151 100.3C191.484 102.233 187.417 103.767 182.951 104.9C178.551 105.967 173.884 106.5 168.951 106.5ZM232.335 18.2C229.468 18.2 227.302 17.3333 225.835 15.6C224.435 13.8667 223.735 11.8333 223.735 9.5C223.735 7.56666 224.102 5.83333 224.835 4.3C225.635 2.7 226.735 1.43333 228.135 0.499998C229.535 -0.500005 231.102 -1.00001 232.835 -1.00001C234.435 -1.00001 235.868 -0.53334 237.135 0.399994C238.402 1.33333 239.402 2.56666 240.135 4.09999C240.868 5.63333 241.235 7.26666 241.235 9C241.235 11.6 240.402 13.8 238.735 15.6C237.068 17.3333 234.935 18.2 232.335 18.2ZM232.235 13C233.368 13 234.335 12.6333 235.135 11.9C236.002 11.1667 236.435 10.2 236.435 9C236.435 7.73333 236.002 6.7 235.135 5.89999C234.268 5.03333 233.335 4.6 232.335 4.6C231.068 4.6 230.068 5.03333 229.335 5.89999C228.668 6.76666 228.335 7.76666 228.335 8.9C228.335 10.1 228.702 11.1 229.435 11.9C230.168 12.6333 231.102 13 232.235 13ZM219.585 106.5L220.485 98.3C224.285 98.3 226.951 97.9333 228.485 97.2C230.018 96.4667 230.885 95.1667 231.085 93.3C231.351 91.4333 231.418 88.8333 231.285 85.5L229.385 34.6H237.485L239.485 84.6C239.618 88.1333 239.485 91.2667 239.085 94C238.751 96.7333 237.885 99.0333 236.485 100.9C235.151 102.767 233.118 104.167 230.385 105.1C227.718 106.033 224.118 106.5 219.585 106.5ZM244.703 19.8V14.2L267.103 7.6V13.3L244.703 19.8ZM253.247 106L251.247 34.6H259.347L261.347 106H253.247Z" fill="#072122" fill-opacity="0.5"/>
        <path opacity="0.1" d="M131.873 201.8L130.973 197C135.507 196.667 139.173 195.967 141.973 194.9C144.84 193.833 146.907 192.567 148.173 191.1C149.507 189.567 150.173 188.033 150.173 186.5C150.173 185.3 149.907 184.3 149.373 183.5C148.84 182.7 148.04 182.3 146.973 182.3C145.973 182.3 145.14 182.667 144.473 183.4C143.807 184.067 143.473 184.9 143.473 185.9C143.473 187.167 144.007 188.367 145.073 189.5C146.14 190.567 147.473 191.367 149.073 191.9L145.973 195.1C143.84 194.3 142.007 193.133 140.473 191.6C139.007 190.067 138.273 188.167 138.273 185.9C138.273 183.567 139.073 181.533 140.673 179.8C142.34 178.067 144.507 177.2 147.173 177.2C149.84 177.2 151.84 178.133 153.173 180C154.573 181.8 155.273 183.867 155.273 186.2C155.273 189.133 154.307 191.733 152.373 194C150.44 196.267 147.707 198.067 144.173 199.4C140.707 200.733 136.607 201.533 131.873 201.8ZM139.843 255.3C138.443 254.9 137.076 254.3 135.743 253.5C134.476 252.633 133.31 251.567 132.243 250.3C131.243 249.033 130.443 247.6 129.843 246C129.243 244.333 128.943 242.567 128.943 240.7C128.943 237.3 129.71 234.4 131.243 232C132.843 229.533 134.91 227.667 137.443 226.4C140.043 225.133 142.876 224.5 145.943 224.5C147.076 224.5 148.31 224.633 149.643 224.9C150.976 225.1 152.243 225.367 153.443 225.7L152.143 233.2C151.143 232.933 150.076 232.733 148.943 232.6C147.81 232.4 146.81 232.3 145.943 232.3C143.943 232.3 142.243 232.7 140.843 233.5C139.51 234.233 138.51 235.233 137.843 236.5C137.176 237.767 136.843 239.167 136.843 240.7C136.843 242.833 137.476 244.767 138.743 246.5C140.01 248.167 141.543 249.5 143.343 250.5C145.143 251.5 146.876 252 148.543 252L139.843 255.3ZM127.243 265.8L124.943 258.2C127.61 257.6 130.776 256.767 134.443 255.7C138.176 254.633 142.076 253.433 146.143 252.1C150.21 250.7 154.11 249.233 157.843 247.7L160.843 255C158.91 255.8 156.476 256.733 153.543 257.8C150.676 258.8 147.61 259.8 144.343 260.8C141.143 261.867 138.043 262.833 135.043 263.7C132.043 264.633 129.443 265.333 127.243 265.8ZM192.699 260.5C187.366 260.5 183.266 259.9 180.399 258.7C177.599 257.5 175.666 255.633 174.599 253.1C173.532 250.567 172.932 247.3 172.799 243.3L170.799 188.6H178.999L180.999 240.1C181.132 243.367 181.432 245.9 181.899 247.7C182.432 249.433 183.566 250.633 185.299 251.3C187.099 251.967 189.899 252.3 193.699 252.3C195.099 252.3 196.099 252.7 196.699 253.5C197.366 254.233 197.699 255.133 197.699 256.2C197.699 257.267 197.232 258.267 196.299 259.2C195.366 260.067 194.166 260.5 192.699 260.5ZM209.615 209.8V204.2L232.015 197.6V203.3L209.615 209.8ZM191.186 260.5L192.186 252.3C194.053 252.3 195.52 251.9 196.586 251.1C197.72 250.3 198.786 248.967 199.786 247.1C200.853 245.233 202.186 242.733 203.786 239.6C205.386 236.4 206.986 233.8 208.586 231.8C210.253 229.733 211.853 228.133 213.386 227C214.986 225.8 216.486 224.967 217.886 224.5C219.286 224.033 220.586 223.8 221.786 223.8C223.986 223.8 225.953 224.3 227.686 225.3C229.42 226.233 231.053 227.867 232.586 230.2C234.12 232.467 235.686 235.6 237.286 239.6C238.82 243.267 240.186 246.033 241.386 247.9C242.653 249.7 243.953 250.9 245.286 251.5C246.686 252.033 248.253 252.3 249.986 252.3C251.386 252.3 252.386 252.7 252.986 253.5C253.653 254.233 253.986 255.133 253.986 256.2C253.986 257.267 253.52 258.267 252.586 259.2C251.653 260.067 250.453 260.5 248.986 260.5C246.386 260.5 243.986 260.067 241.786 259.2C239.653 258.333 237.853 256.967 236.386 255.1L237.786 253C237.053 255.067 236.053 256.767 234.786 258.1C233.586 259.367 232.22 260.3 230.686 260.9C229.153 261.567 227.52 261.9 225.786 261.9C223.586 261.9 221.32 261.433 218.986 260.5C216.72 259.567 214.52 258.233 212.386 256.5C210.253 254.767 208.386 252.733 206.786 250.4C205.053 253.467 203.386 255.733 201.786 257.2C200.253 258.6 198.653 259.5 196.986 259.9C195.32 260.3 193.386 260.5 191.186 260.5ZM210.586 242.8C211.72 244.667 212.92 246.3 214.186 247.7C215.52 249.1 216.853 250.267 218.186 251.2C219.52 252.067 220.82 252.733 222.086 253.2C223.42 253.6 224.62 253.8 225.686 253.8C228.02 253.8 229.72 252.967 230.786 251.3C231.92 249.633 231.886 247.3 230.686 244.3C230.086 242.767 229.453 241.267 228.786 239.8C228.186 238.333 227.52 237 226.786 235.8C226.053 234.533 225.22 233.567 224.286 232.9C223.353 232.167 222.32 231.8 221.186 231.8C220.186 231.8 219.12 232.133 217.986 232.8C216.92 233.467 215.753 234.6 214.486 236.2C213.286 237.8 211.986 240 210.586 242.8ZM250.484 173.8V168.2L272.884 161.6V167.3L250.484 173.8ZM247.484 260.5L248.384 252.3C252.184 252.3 254.851 251.933 256.384 251.2C257.918 250.467 258.784 249.167 258.984 247.3C259.251 245.433 259.318 242.833 259.184 239.5L257.484 188.6H265.784L267.384 239.3C267.518 242.7 268.051 245.367 268.984 247.3C269.984 249.167 271.318 250.467 272.984 251.2C274.651 251.933 276.484 252.3 278.484 252.3C279.884 252.3 280.884 252.7 281.484 253.5C282.151 254.233 282.484 255.133 282.484 256.2C282.484 257.267 282.018 258.267 281.084 259.2C280.151 260.067 278.951 260.5 277.484 260.5C274.684 260.5 272.351 260.067 270.484 259.2C268.684 258.267 267.251 257.1 266.184 255.7C265.184 254.233 264.518 252.7 264.184 251.1L266.284 251.3C265.618 253.3 264.518 255 262.984 256.4C261.518 257.733 259.518 258.767 256.984 259.5C254.451 260.167 251.284 260.5 247.484 260.5ZM289.269 206.8L288.369 202C292.902 201.667 296.569 200.967 299.369 199.9C302.235 198.833 304.302 197.567 305.569 196.1C306.902 194.567 307.569 193.033 307.569 191.5C307.569 190.3 307.302 189.3 306.769 188.5C306.235 187.7 305.435 187.3 304.369 187.3C303.369 187.3 302.535 187.667 301.869 188.4C301.202 189.067 300.869 189.9 300.869 190.9C300.869 192.167 301.402 193.367 302.469 194.5C303.535 195.567 304.869 196.367 306.469 196.9L303.369 200.1C301.235 199.3 299.402 198.133 297.869 196.6C296.402 195.067 295.669 193.167 295.669 190.9C295.669 188.567 296.469 186.533 298.069 184.8C299.735 183.067 301.902 182.2 304.569 182.2C307.235 182.2 309.235 183.133 310.569 185C311.969 186.8 312.669 188.867 312.669 191.2C312.669 194.133 311.702 196.733 309.769 199C307.835 201.267 305.102 203.067 301.569 204.4C298.102 205.733 294.002 206.533 289.269 206.8ZM275.951 260.5L276.951 252.3C280.951 252.3 284.717 251.933 288.251 251.2C291.784 250.4 295.017 249.367 297.951 248.1C300.951 246.767 303.517 245.267 305.651 243.6C307.784 241.867 309.417 240.1 310.551 238.3C311.751 236.433 312.351 234.6 312.351 232.8C312.351 231.933 312.051 231.067 311.451 230.2C310.851 229.267 309.817 228.5 308.351 227.9C306.951 227.3 305.051 227 302.651 227C301.184 227 299.551 227.2 297.751 227.6C295.951 228 294.217 228.567 292.551 229.3C290.951 229.967 289.617 230.733 288.551 231.6C290.351 233.067 292.017 234.5 293.551 235.9C295.151 237.3 296.784 238.833 298.451 240.5C300.117 242.1 301.917 243.933 303.851 246C305.384 247.133 307.084 248.1 308.951 248.9C310.884 249.7 312.951 250.367 315.151 250.9C317.417 251.367 319.717 251.733 322.051 252C324.384 252.2 326.717 252.3 329.051 252.3C330.451 252.3 331.451 252.7 332.051 253.5C332.717 254.233 333.051 255.133 333.051 256.2C333.051 257.267 332.584 258.267 331.651 259.2C330.717 260.067 329.517 260.5 328.051 260.5C324.384 260.5 320.617 260.167 316.751 259.5C312.951 258.767 309.384 257.7 306.051 256.3C302.717 254.833 299.884 253 297.551 250.8C296.417 249.333 295.151 247.867 293.751 246.4C292.351 244.933 290.817 243.467 289.151 242C287.551 240.467 285.817 239.033 283.951 237.7C283.551 237.367 283.151 236.767 282.751 235.9C282.351 235.033 282.017 234.133 281.751 233.2C281.484 232.267 281.351 231.567 281.351 231.1C281.351 230.1 281.984 228.9 283.251 227.5C284.517 226.1 286.217 224.767 288.351 223.5C290.484 222.167 292.917 221.067 295.651 220.2C298.384 219.333 301.217 218.9 304.151 218.9C307.951 218.9 311.017 219.467 313.351 220.6C315.751 221.733 317.484 223.2 318.551 225C319.684 226.733 320.251 228.6 320.251 230.6C320.251 233.533 319.517 236.467 318.051 239.4C316.584 242.267 314.484 244.967 311.751 247.5C309.017 250.033 305.817 252.3 302.151 254.3C298.484 256.233 294.417 257.767 289.951 258.9C285.551 259.967 280.884 260.5 275.951 260.5ZM339.335 172.2C336.468 172.2 334.302 171.333 332.835 169.6C331.435 167.867 330.735 165.833 330.735 163.5C330.735 161.567 331.102 159.833 331.835 158.3C332.635 156.7 333.735 155.433 335.135 154.5C336.535 153.5 338.102 153 339.835 153C341.435 153 342.868 153.467 344.135 154.4C345.402 155.333 346.402 156.567 347.135 158.1C347.868 159.633 348.235 161.267 348.235 163C348.235 165.6 347.402 167.8 345.735 169.6C344.068 171.333 341.935 172.2 339.335 172.2ZM339.235 167C340.368 167 341.335 166.633 342.135 165.9C343.002 165.167 343.435 164.2 343.435 163C343.435 161.733 343.002 160.7 342.135 159.9C341.268 159.033 340.335 158.6 339.335 158.6C338.068 158.6 337.068 159.033 336.335 159.9C335.668 160.767 335.335 161.767 335.335 162.9C335.335 164.1 335.702 165.1 336.435 165.9C337.168 166.633 338.102 167 339.235 167ZM326.585 260.5L327.485 252.3C331.285 252.3 333.951 251.933 335.485 251.2C337.018 250.467 337.885 249.167 338.085 247.3C338.351 245.433 338.418 242.833 338.285 239.5L336.385 188.6H344.485L346.485 238.6C346.618 242.133 346.485 245.267 346.085 248C345.751 250.733 344.885 253.033 343.485 254.9C342.151 256.767 340.118 258.167 337.385 259.1C334.718 260.033 331.118 260.5 326.585 260.5ZM351.703 173.8V168.2L374.103 161.6V167.3L351.703 173.8ZM360.247 260L358.247 188.6H366.347L368.347 260H360.247Z" fill="#072122" fill-opacity="0.5"/>
        <path opacity="0.1" d="M506.873 88.8L505.973 84C510.507 83.6667 514.173 82.9667 516.973 81.9C519.84 80.8333 521.907 79.5667 523.173 78.1C524.507 76.5667 525.173 75.0333 525.173 73.5C525.173 72.3 524.907 71.3 524.373 70.5C523.84 69.7 523.04 69.3 521.973 69.3C520.973 69.3 520.14 69.6667 519.473 70.4C518.807 71.0667 518.473 71.9 518.473 72.9C518.473 74.1667 519.007 75.3667 520.073 76.5C521.14 77.5667 522.473 78.3667 524.073 78.9L520.973 82.1C518.84 81.3 517.007 80.1333 515.473 78.6C514.007 77.0667 513.273 75.1667 513.273 72.9C513.273 70.5667 514.073 68.5333 515.673 66.8C517.34 65.0667 519.507 64.2 522.173 64.2C524.84 64.2 526.84 65.1333 528.173 67C529.573 68.8 530.273 70.8667 530.273 73.2C530.273 76.1333 529.307 78.7333 527.373 81C525.44 83.2667 522.707 85.0667 519.173 86.4C515.707 87.7333 511.607 88.5333 506.873 88.8ZM514.843 142.3C513.443 141.9 512.076 141.3 510.743 140.5C509.476 139.633 508.31 138.567 507.243 137.3C506.243 136.033 505.443 134.6 504.843 133C504.243 131.333 503.943 129.567 503.943 127.7C503.943 124.3 504.71 121.4 506.243 119C507.843 116.533 509.91 114.667 512.443 113.4C515.043 112.133 517.876 111.5 520.943 111.5C522.076 111.5 523.31 111.633 524.643 111.9C525.976 112.1 527.243 112.367 528.443 112.7L527.143 120.2C526.143 119.933 525.076 119.733 523.943 119.6C522.81 119.4 521.81 119.3 520.943 119.3C518.943 119.3 517.243 119.7 515.843 120.5C514.51 121.233 513.51 122.233 512.843 123.5C512.176 124.767 511.843 126.167 511.843 127.7C511.843 129.833 512.476 131.767 513.743 133.5C515.01 135.167 516.543 136.5 518.343 137.5C520.143 138.5 521.876 139 523.543 139L514.843 142.3ZM502.243 152.8L499.943 145.2C502.61 144.6 505.776 143.767 509.443 142.7C513.176 141.633 517.076 140.433 521.143 139.1C525.21 137.7 529.11 136.233 532.843 134.7L535.843 142C533.91 142.8 531.476 143.733 528.543 144.8C525.676 145.8 522.61 146.8 519.343 147.8C516.143 148.867 513.043 149.833 510.043 150.7C507.043 151.633 504.443 152.333 502.243 152.8ZM567.699 147.5C562.366 147.5 558.266 146.9 555.399 145.7C552.599 144.5 550.666 142.633 549.599 140.1C548.532 137.567 547.932 134.3 547.799 130.3L545.799 75.6H553.999L555.999 127.1C556.132 130.367 556.432 132.9 556.899 134.7C557.432 136.433 558.566 137.633 560.299 138.3C562.099 138.967 564.899 139.3 568.699 139.3C570.099 139.3 571.099 139.7 571.699 140.5C572.366 141.233 572.699 142.133 572.699 143.2C572.699 144.267 572.232 145.267 571.299 146.2C570.366 147.067 569.166 147.5 567.699 147.5ZM584.615 96.8V91.2L607.015 84.6V90.3L584.615 96.8ZM566.186 147.5L567.186 139.3C569.053 139.3 570.52 138.9 571.586 138.1C572.72 137.3 573.786 135.967 574.786 134.1C575.853 132.233 577.186 129.733 578.786 126.6C580.386 123.4 581.986 120.8 583.586 118.8C585.253 116.733 586.853 115.133 588.386 114C589.986 112.8 591.486 111.967 592.886 111.5C594.286 111.033 595.586 110.8 596.786 110.8C598.986 110.8 600.953 111.3 602.686 112.3C604.42 113.233 606.053 114.867 607.586 117.2C609.12 119.467 610.686 122.6 612.286 126.6C613.82 130.267 615.186 133.033 616.386 134.9C617.653 136.7 618.953 137.9 620.286 138.5C621.686 139.033 623.253 139.3 624.986 139.3C626.386 139.3 627.386 139.7 627.986 140.5C628.653 141.233 628.986 142.133 628.986 143.2C628.986 144.267 628.52 145.267 627.586 146.2C626.653 147.067 625.453 147.5 623.986 147.5C621.386 147.5 618.986 147.067 616.786 146.2C614.653 145.333 612.853 143.967 611.386 142.1L612.786 140C612.053 142.067 611.053 143.767 609.786 145.1C608.586 146.367 607.22 147.3 605.686 147.9C604.153 148.567 602.52 148.9 600.786 148.9C598.586 148.9 596.32 148.433 593.986 147.5C591.72 146.567 589.52 145.233 587.386 143.5C585.253 141.767 583.386 139.733 581.786 137.4C580.053 140.467 578.386 142.733 576.786 144.2C575.253 145.6 573.653 146.5 571.986 146.9C570.32 147.3 568.386 147.5 566.186 147.5ZM585.586 129.8C586.72 131.667 587.92 133.3 589.186 134.7C590.52 136.1 591.853 137.267 593.186 138.2C594.52 139.067 595.82 139.733 597.086 140.2C598.42 140.6 599.62 140.8 600.686 140.8C603.02 140.8 604.72 139.967 605.786 138.3C606.92 136.633 606.886 134.3 605.686 131.3C605.086 129.767 604.453 128.267 603.786 126.8C603.186 125.333 602.52 124 601.786 122.8C601.053 121.533 600.22 120.567 599.286 119.9C598.353 119.167 597.32 118.8 596.186 118.8C595.186 118.8 594.12 119.133 592.986 119.8C591.92 120.467 590.753 121.6 589.486 123.2C588.286 124.8 586.986 127 585.586 129.8ZM625.484 60.8V55.2L647.884 48.6V54.3L625.484 60.8ZM622.484 147.5L623.384 139.3C627.184 139.3 629.851 138.933 631.384 138.2C632.918 137.467 633.784 136.167 633.984 134.3C634.251 132.433 634.318 129.833 634.184 126.5L632.484 75.6H640.784L642.384 126.3C642.518 129.7 643.051 132.367 643.984 134.3C644.984 136.167 646.318 137.467 647.984 138.2C649.651 138.933 651.484 139.3 653.484 139.3C654.884 139.3 655.884 139.7 656.484 140.5C657.151 141.233 657.484 142.133 657.484 143.2C657.484 144.267 657.018 145.267 656.084 146.2C655.151 147.067 653.951 147.5 652.484 147.5C649.684 147.5 647.351 147.067 645.484 146.2C643.684 145.267 642.251 144.1 641.184 142.7C640.184 141.233 639.518 139.7 639.184 138.1L641.284 138.3C640.618 140.3 639.518 142 637.984 143.4C636.518 144.733 634.518 145.767 631.984 146.5C629.451 147.167 626.284 147.5 622.484 147.5ZM664.269 93.8L663.369 89C667.902 88.6667 671.569 87.9667 674.369 86.9C677.235 85.8333 679.302 84.5667 680.569 83.1C681.902 81.5667 682.569 80.0333 682.569 78.5C682.569 77.3 682.302 76.3 681.769 75.5C681.235 74.7 680.435 74.3 679.369 74.3C678.369 74.3 677.535 74.6667 676.869 75.4C676.202 76.0667 675.869 76.9 675.869 77.9C675.869 79.1667 676.402 80.3667 677.469 81.5C678.535 82.5667 679.869 83.3667 681.469 83.9L678.369 87.1C676.235 86.3 674.402 85.1333 672.869 83.6C671.402 82.0667 670.669 80.1667 670.669 77.9C670.669 75.5667 671.469 73.5333 673.069 71.8C674.735 70.0667 676.902 69.2 679.569 69.2C682.235 69.2 684.235 70.1333 685.569 72C686.969 73.8 687.669 75.8667 687.669 78.2C687.669 81.1333 686.702 83.7333 684.769 86C682.835 88.2667 680.102 90.0667 676.569 91.4C673.102 92.7333 669.002 93.5333 664.269 93.8ZM650.951 147.5L651.951 139.3C655.951 139.3 659.717 138.933 663.251 138.2C666.784 137.4 670.017 136.367 672.951 135.1C675.951 133.767 678.517 132.267 680.651 130.6C682.784 128.867 684.417 127.1 685.551 125.3C686.751 123.433 687.351 121.6 687.351 119.8C687.351 118.933 687.051 118.067 686.451 117.2C685.851 116.267 684.817 115.5 683.351 114.9C681.951 114.3 680.051 114 677.651 114C676.184 114 674.551 114.2 672.751 114.6C670.951 115 669.217 115.567 667.551 116.3C665.951 116.967 664.617 117.733 663.551 118.6C665.351 120.067 667.017 121.5 668.551 122.9C670.151 124.3 671.784 125.833 673.451 127.5C675.117 129.1 676.917 130.933 678.851 133C680.384 134.133 682.084 135.1 683.951 135.9C685.884 136.7 687.951 137.367 690.151 137.9C692.417 138.367 694.717 138.733 697.051 139C699.384 139.2 701.717 139.3 704.051 139.3C705.451 139.3 706.451 139.7 707.051 140.5C707.717 141.233 708.051 142.133 708.051 143.2C708.051 144.267 707.584 145.267 706.651 146.2C705.717 147.067 704.517 147.5 703.051 147.5C699.384 147.5 695.617 147.167 691.751 146.5C687.951 145.767 684.384 144.7 681.051 143.3C677.717 141.833 674.884 140 672.551 137.8C671.417 136.333 670.151 134.867 668.751 133.4C667.351 131.933 665.817 130.467 664.151 129C662.551 127.467 660.817 126.033 658.951 124.7C658.551 124.367 658.151 123.767 657.751 122.9C657.351 122.033 657.017 121.133 656.751 120.2C656.484 119.267 656.351 118.567 656.351 118.1C656.351 117.1 656.984 115.9 658.251 114.5C659.517 113.1 661.217 111.767 663.351 110.5C665.484 109.167 667.917 108.067 670.651 107.2C673.384 106.333 676.217 105.9 679.151 105.9C682.951 105.9 686.017 106.467 688.351 107.6C690.751 108.733 692.484 110.2 693.551 112C694.684 113.733 695.251 115.6 695.251 117.6C695.251 120.533 694.517 123.467 693.051 126.4C691.584 129.267 689.484 131.967 686.751 134.5C684.017 137.033 680.817 139.3 677.151 141.3C673.484 143.233 669.417 144.767 664.951 145.9C660.551 146.967 655.884 147.5 650.951 147.5ZM714.335 59.2C711.468 59.2 709.302 58.3333 707.835 56.6C706.435 54.8667 705.735 52.8333 705.735 50.5C705.735 48.5667 706.102 46.8333 706.835 45.3C707.635 43.7 708.735 42.4333 710.135 41.5C711.535 40.5 713.102 40 714.835 40C716.435 40 717.868 40.4667 719.135 41.4C720.402 42.3333 721.402 43.5667 722.135 45.1C722.868 46.6333 723.235 48.2667 723.235 50C723.235 52.6 722.402 54.8 720.735 56.6C719.068 58.3333 716.935 59.2 714.335 59.2ZM714.235 54C715.368 54 716.335 53.6333 717.135 52.9C718.002 52.1667 718.435 51.2 718.435 50C718.435 48.7333 718.002 47.7 717.135 46.9C716.268 46.0333 715.335 45.6 714.335 45.6C713.068 45.6 712.068 46.0333 711.335 46.9C710.668 47.7667 710.335 48.7667 710.335 49.9C710.335 51.1 710.702 52.1 711.435 52.9C712.168 53.6333 713.102 54 714.235 54ZM701.585 147.5L702.485 139.3C706.285 139.3 708.951 138.933 710.485 138.2C712.018 137.467 712.885 136.167 713.085 134.3C713.351 132.433 713.418 129.833 713.285 126.5L711.385 75.6H719.485L721.485 125.6C721.618 129.133 721.485 132.267 721.085 135C720.751 137.733 719.885 140.033 718.485 141.9C717.151 143.767 715.118 145.167 712.385 146.1C709.718 147.033 706.118 147.5 701.585 147.5ZM726.703 60.8V55.2L749.103 48.6V54.3L726.703 60.8ZM735.247 147L733.247 75.6H741.347L743.347 147H735.247Z" fill="#072122" fill-opacity="0.5"/>
        <path opacity="0.1" d="M839.873 229.8L838.973 225C843.507 224.667 847.173 223.967 849.973 222.9C852.84 221.833 854.907 220.567 856.173 219.1C857.507 217.567 858.173 216.033 858.173 214.5C858.173 213.3 857.907 212.3 857.373 211.5C856.84 210.7 856.04 210.3 854.973 210.3C853.973 210.3 853.14 210.667 852.473 211.4C851.807 212.067 851.473 212.9 851.473 213.9C851.473 215.167 852.007 216.367 853.073 217.5C854.14 218.567 855.473 219.367 857.073 219.9L853.973 223.1C851.84 222.3 850.007 221.133 848.473 219.6C847.007 218.067 846.273 216.167 846.273 213.9C846.273 211.567 847.073 209.533 848.673 207.8C850.34 206.067 852.507 205.2 855.173 205.2C857.84 205.2 859.84 206.133 861.173 208C862.573 209.8 863.273 211.867 863.273 214.2C863.273 217.133 862.307 219.733 860.373 222C858.44 224.267 855.707 226.067 852.173 227.4C848.707 228.733 844.607 229.533 839.873 229.8ZM847.843 283.3C846.443 282.9 845.076 282.3 843.743 281.5C842.476 280.633 841.31 279.567 840.243 278.3C839.243 277.033 838.443 275.6 837.843 274C837.243 272.333 836.943 270.567 836.943 268.7C836.943 265.3 837.71 262.4 839.243 260C840.843 257.533 842.91 255.667 845.443 254.4C848.043 253.133 850.876 252.5 853.943 252.5C855.076 252.5 856.31 252.633 857.643 252.9C858.976 253.1 860.243 253.367 861.443 253.7L860.143 261.2C859.143 260.933 858.076 260.733 856.943 260.6C855.81 260.4 854.81 260.3 853.943 260.3C851.943 260.3 850.243 260.7 848.843 261.5C847.51 262.233 846.51 263.233 845.843 264.5C845.176 265.767 844.843 267.167 844.843 268.7C844.843 270.833 845.476 272.767 846.743 274.5C848.01 276.167 849.543 277.5 851.343 278.5C853.143 279.5 854.876 280 856.543 280L847.843 283.3ZM835.243 293.8L832.943 286.2C835.61 285.6 838.776 284.767 842.443 283.7C846.176 282.633 850.076 281.433 854.143 280.1C858.21 278.7 862.11 277.233 865.843 275.7L868.843 283C866.91 283.8 864.476 284.733 861.543 285.8C858.676 286.8 855.61 287.8 852.343 288.8C849.143 289.867 846.043 290.833 843.043 291.7C840.043 292.633 837.443 293.333 835.243 293.8ZM900.699 288.5C895.366 288.5 891.266 287.9 888.399 286.7C885.599 285.5 883.666 283.633 882.599 281.1C881.532 278.567 880.932 275.3 880.799 271.3L878.799 216.6H886.999L888.999 268.1C889.132 271.367 889.432 273.9 889.899 275.7C890.432 277.433 891.566 278.633 893.299 279.3C895.099 279.967 897.899 280.3 901.699 280.3C903.099 280.3 904.099 280.7 904.699 281.5C905.366 282.233 905.699 283.133 905.699 284.2C905.699 285.267 905.232 286.267 904.299 287.2C903.366 288.067 902.166 288.5 900.699 288.5ZM917.615 237.8V232.2L940.015 225.6V231.3L917.615 237.8ZM899.186 288.5L900.186 280.3C902.053 280.3 903.52 279.9 904.586 279.1C905.72 278.3 906.786 276.967 907.786 275.1C908.853 273.233 910.186 270.733 911.786 267.6C913.386 264.4 914.986 261.8 916.586 259.8C918.253 257.733 919.853 256.133 921.386 255C922.986 253.8 924.486 252.967 925.886 252.5C927.286 252.033 928.586 251.8 929.786 251.8C931.986 251.8 933.953 252.3 935.686 253.3C937.42 254.233 939.053 255.867 940.586 258.2C942.12 260.467 943.686 263.6 945.286 267.6C946.82 271.267 948.186 274.033 949.386 275.9C950.653 277.7 951.953 278.9 953.286 279.5C954.686 280.033 956.253 280.3 957.986 280.3C959.386 280.3 960.386 280.7 960.986 281.5C961.653 282.233 961.986 283.133 961.986 284.2C961.986 285.267 961.52 286.267 960.586 287.2C959.653 288.067 958.453 288.5 956.986 288.5C954.386 288.5 951.986 288.067 949.786 287.2C947.653 286.333 945.853 284.967 944.386 283.1L945.786 281C945.053 283.067 944.053 284.767 942.786 286.1C941.586 287.367 940.22 288.3 938.686 288.9C937.153 289.567 935.52 289.9 933.786 289.9C931.586 289.9 929.32 289.433 926.986 288.5C924.72 287.567 922.52 286.233 920.386 284.5C918.253 282.767 916.386 280.733 914.786 278.4C913.053 281.467 911.386 283.733 909.786 285.2C908.253 286.6 906.653 287.5 904.986 287.9C903.32 288.3 901.386 288.5 899.186 288.5ZM918.586 270.8C919.72 272.667 920.92 274.3 922.186 275.7C923.52 277.1 924.853 278.267 926.186 279.2C927.52 280.067 928.82 280.733 930.086 281.2C931.42 281.6 932.62 281.8 933.686 281.8C936.02 281.8 937.72 280.967 938.786 279.3C939.92 277.633 939.886 275.3 938.686 272.3C938.086 270.767 937.453 269.267 936.786 267.8C936.186 266.333 935.52 265 934.786 263.8C934.053 262.533 933.22 261.567 932.286 260.9C931.353 260.167 930.32 259.8 929.186 259.8C928.186 259.8 927.12 260.133 925.986 260.8C924.92 261.467 923.753 262.6 922.486 264.2C921.286 265.8 919.986 268 918.586 270.8ZM958.484 201.8V196.2L980.884 189.6V195.3L958.484 201.8ZM955.484 288.5L956.384 280.3C960.184 280.3 962.851 279.933 964.384 279.2C965.918 278.467 966.784 277.167 966.984 275.3C967.251 273.433 967.318 270.833 967.184 267.5L965.484 216.6H973.784L975.384 267.3C975.518 270.7 976.051 273.367 976.984 275.3C977.984 277.167 979.318 278.467 980.984 279.2C982.651 279.933 984.484 280.3 986.484 280.3C987.884 280.3 988.884 280.7 989.484 281.5C990.151 282.233 990.484 283.133 990.484 284.2C990.484 285.267 990.018 286.267 989.084 287.2C988.151 288.067 986.951 288.5 985.484 288.5C982.684 288.5 980.351 288.067 978.484 287.2C976.684 286.267 975.251 285.1 974.184 283.7C973.184 282.233 972.518 280.7 972.184 279.1L974.284 279.3C973.618 281.3 972.518 283 970.984 284.4C969.518 285.733 967.518 286.767 964.984 287.5C962.451 288.167 959.284 288.5 955.484 288.5ZM997.269 234.8L996.369 230C1000.9 229.667 1004.57 228.967 1007.37 227.9C1010.24 226.833 1012.3 225.567 1013.57 224.1C1014.9 222.567 1015.57 221.033 1015.57 219.5C1015.57 218.3 1015.3 217.3 1014.77 216.5C1014.24 215.7 1013.44 215.3 1012.37 215.3C1011.37 215.3 1010.54 215.667 1009.87 216.4C1009.2 217.067 1008.87 217.9 1008.87 218.9C1008.87 220.167 1009.4 221.367 1010.47 222.5C1011.54 223.567 1012.87 224.367 1014.47 224.9L1011.37 228.1C1009.24 227.3 1007.4 226.133 1005.87 224.6C1004.4 223.067 1003.67 221.167 1003.67 218.9C1003.67 216.567 1004.47 214.533 1006.07 212.8C1007.74 211.067 1009.9 210.2 1012.57 210.2C1015.24 210.2 1017.24 211.133 1018.57 213C1019.97 214.8 1020.67 216.867 1020.67 219.2C1020.67 222.133 1019.7 224.733 1017.77 227C1015.84 229.267 1013.1 231.067 1009.57 232.4C1006.1 233.733 1002 234.533 997.269 234.8ZM983.951 288.5L984.951 280.3C988.951 280.3 992.717 279.933 996.251 279.2C999.784 278.4 1003.02 277.367 1005.95 276.1C1008.95 274.767 1011.52 273.267 1013.65 271.6C1015.78 269.867 1017.42 268.1 1018.55 266.3C1019.75 264.433 1020.35 262.6 1020.35 260.8C1020.35 259.933 1020.05 259.067 1019.45 258.2C1018.85 257.267 1017.82 256.5 1016.35 255.9C1014.95 255.3 1013.05 255 1010.65 255C1009.18 255 1007.55 255.2 1005.75 255.6C1003.95 256 1002.22 256.567 1000.55 257.3C998.951 257.967 997.617 258.733 996.551 259.6C998.351 261.067 1000.02 262.5 1001.55 263.9C1003.15 265.3 1004.78 266.833 1006.45 268.5C1008.12 270.1 1009.92 271.933 1011.85 274C1013.38 275.133 1015.08 276.1 1016.95 276.9C1018.88 277.7 1020.95 278.367 1023.15 278.9C1025.42 279.367 1027.72 279.733 1030.05 280C1032.38 280.2 1034.72 280.3 1037.05 280.3C1038.45 280.3 1039.45 280.7 1040.05 281.5C1040.72 282.233 1041.05 283.133 1041.05 284.2C1041.05 285.267 1040.58 286.267 1039.65 287.2C1038.72 288.067 1037.52 288.5 1036.05 288.5C1032.38 288.5 1028.62 288.167 1024.75 287.5C1020.95 286.767 1017.38 285.7 1014.05 284.3C1010.72 282.833 1007.88 281 1005.55 278.8C1004.42 277.333 1003.15 275.867 1001.75 274.4C1000.35 272.933 998.817 271.467 997.151 270C995.551 268.467 993.817 267.033 991.951 265.7C991.551 265.367 991.151 264.767 990.751 263.9C990.351 263.033 990.017 262.133 989.751 261.2C989.484 260.267 989.351 259.567 989.351 259.1C989.351 258.1 989.984 256.9 991.251 255.5C992.517 254.1 994.217 252.767 996.351 251.5C998.484 250.167 1000.92 249.067 1003.65 248.2C1006.38 247.333 1009.22 246.9 1012.15 246.9C1015.95 246.9 1019.02 247.467 1021.35 248.6C1023.75 249.733 1025.48 251.2 1026.55 253C1027.68 254.733 1028.25 256.6 1028.25 258.6C1028.25 261.533 1027.52 264.467 1026.05 267.4C1024.58 270.267 1022.48 272.967 1019.75 275.5C1017.02 278.033 1013.82 280.3 1010.15 282.3C1006.48 284.233 1002.42 285.767 997.951 286.9C993.551 287.967 988.884 288.5 983.951 288.5ZM1047.33 200.2C1044.47 200.2 1042.3 199.333 1040.83 197.6C1039.43 195.867 1038.73 193.833 1038.73 191.5C1038.73 189.567 1039.1 187.833 1039.83 186.3C1040.63 184.7 1041.73 183.433 1043.13 182.5C1044.53 181.5 1046.1 181 1047.83 181C1049.43 181 1050.87 181.467 1052.13 182.4C1053.4 183.333 1054.4 184.567 1055.13 186.1C1055.87 187.633 1056.23 189.267 1056.23 191C1056.23 193.6 1055.4 195.8 1053.73 197.6C1052.07 199.333 1049.93 200.2 1047.33 200.2ZM1047.23 195C1048.37 195 1049.33 194.633 1050.13 193.9C1051 193.167 1051.43 192.2 1051.43 191C1051.43 189.733 1051 188.7 1050.13 187.9C1049.27 187.033 1048.33 186.6 1047.33 186.6C1046.07 186.6 1045.07 187.033 1044.33 187.9C1043.67 188.767 1043.33 189.767 1043.33 190.9C1043.33 192.1 1043.7 193.1 1044.43 193.9C1045.17 194.633 1046.1 195 1047.23 195ZM1034.58 288.5L1035.48 280.3C1039.28 280.3 1041.95 279.933 1043.48 279.2C1045.02 278.467 1045.88 277.167 1046.08 275.3C1046.35 273.433 1046.42 270.833 1046.28 267.5L1044.38 216.6H1052.48L1054.48 266.6C1054.62 270.133 1054.48 273.267 1054.08 276C1053.75 278.733 1052.88 281.033 1051.48 282.9C1050.15 284.767 1048.12 286.167 1045.38 287.1C1042.72 288.033 1039.12 288.5 1034.58 288.5ZM1059.7 201.8V196.2L1082.1 189.6V195.3L1059.7 201.8ZM1068.25 288L1066.25 216.6H1074.35L1076.35 288H1068.25Z" fill="#072122" fill-opacity="0.5"/>
        <path opacity="0.1" d="M1146.87 109.8L1145.97 105C1150.51 104.667 1154.17 103.967 1156.97 102.9C1159.84 101.833 1161.91 100.567 1163.17 99.1C1164.51 97.5667 1165.17 96.0333 1165.17 94.5C1165.17 93.3 1164.91 92.3 1164.37 91.5C1163.84 90.7 1163.04 90.3 1161.97 90.3C1160.97 90.3 1160.14 90.6667 1159.47 91.4C1158.81 92.0667 1158.47 92.9 1158.47 93.9C1158.47 95.1667 1159.01 96.3667 1160.07 97.5C1161.14 98.5667 1162.47 99.3667 1164.07 99.9L1160.97 103.1C1158.84 102.3 1157.01 101.133 1155.47 99.6C1154.01 98.0667 1153.27 96.1667 1153.27 93.9C1153.27 91.5667 1154.07 89.5333 1155.67 87.8C1157.34 86.0667 1159.51 85.2 1162.17 85.2C1164.84 85.2 1166.84 86.1333 1168.17 88C1169.57 89.8 1170.27 91.8667 1170.27 94.2C1170.27 97.1333 1169.31 99.7333 1167.37 102C1165.44 104.267 1162.71 106.067 1159.17 107.4C1155.71 108.733 1151.61 109.533 1146.87 109.8ZM1154.84 163.3C1153.44 162.9 1152.08 162.3 1150.74 161.5C1149.48 160.633 1148.31 159.567 1147.24 158.3C1146.24 157.033 1145.44 155.6 1144.84 154C1144.24 152.333 1143.94 150.567 1143.94 148.7C1143.94 145.3 1144.71 142.4 1146.24 140C1147.84 137.533 1149.91 135.667 1152.44 134.4C1155.04 133.133 1157.88 132.5 1160.94 132.5C1162.08 132.5 1163.31 132.633 1164.64 132.9C1165.98 133.1 1167.24 133.367 1168.44 133.7L1167.14 141.2C1166.14 140.933 1165.08 140.733 1163.94 140.6C1162.81 140.4 1161.81 140.3 1160.94 140.3C1158.94 140.3 1157.24 140.7 1155.84 141.5C1154.51 142.233 1153.51 143.233 1152.84 144.5C1152.18 145.767 1151.84 147.167 1151.84 148.7C1151.84 150.833 1152.48 152.767 1153.74 154.5C1155.01 156.167 1156.54 157.5 1158.34 158.5C1160.14 159.5 1161.88 160 1163.54 160L1154.84 163.3ZM1142.24 173.8L1139.94 166.2C1142.61 165.6 1145.78 164.767 1149.44 163.7C1153.18 162.633 1157.08 161.433 1161.14 160.1C1165.21 158.7 1169.11 157.233 1172.84 155.7L1175.84 163C1173.91 163.8 1171.48 164.733 1168.54 165.8C1165.68 166.8 1162.61 167.8 1159.34 168.8C1156.14 169.867 1153.04 170.833 1150.04 171.7C1147.04 172.633 1144.44 173.333 1142.24 173.8ZM1207.7 168.5C1202.37 168.5 1198.27 167.9 1195.4 166.7C1192.6 165.5 1190.67 163.633 1189.6 161.1C1188.53 158.567 1187.93 155.3 1187.8 151.3L1185.8 96.6H1194L1196 148.1C1196.13 151.367 1196.43 153.9 1196.9 155.7C1197.43 157.433 1198.57 158.633 1200.3 159.3C1202.1 159.967 1204.9 160.3 1208.7 160.3C1210.1 160.3 1211.1 160.7 1211.7 161.5C1212.37 162.233 1212.7 163.133 1212.7 164.2C1212.7 165.267 1212.23 166.267 1211.3 167.2C1210.37 168.067 1209.17 168.5 1207.7 168.5ZM1224.62 117.8V112.2L1247.02 105.6V111.3L1224.62 117.8ZM1206.19 168.5L1207.19 160.3C1209.05 160.3 1210.52 159.9 1211.59 159.1C1212.72 158.3 1213.79 156.967 1214.79 155.1C1215.85 153.233 1217.19 150.733 1218.79 147.6C1220.39 144.4 1221.99 141.8 1223.59 139.8C1225.25 137.733 1226.85 136.133 1228.39 135C1229.99 133.8 1231.49 132.967 1232.89 132.5C1234.29 132.033 1235.59 131.8 1236.79 131.8C1238.99 131.8 1240.95 132.3 1242.69 133.3C1244.42 134.233 1246.05 135.867 1247.59 138.2C1249.12 140.467 1250.69 143.6 1252.29 147.6C1253.82 151.267 1255.19 154.033 1256.39 155.9C1257.65 157.7 1258.95 158.9 1260.29 159.5C1261.69 160.033 1263.25 160.3 1264.99 160.3C1266.39 160.3 1267.39 160.7 1267.99 161.5C1268.65 162.233 1268.99 163.133 1268.99 164.2C1268.99 165.267 1268.52 166.267 1267.59 167.2C1266.65 168.067 1265.45 168.5 1263.99 168.5C1261.39 168.5 1258.99 168.067 1256.79 167.2C1254.65 166.333 1252.85 164.967 1251.39 163.1L1252.79 161C1252.05 163.067 1251.05 164.767 1249.79 166.1C1248.59 167.367 1247.22 168.3 1245.69 168.9C1244.15 169.567 1242.52 169.9 1240.79 169.9C1238.59 169.9 1236.32 169.433 1233.99 168.5C1231.72 167.567 1229.52 166.233 1227.39 164.5C1225.25 162.767 1223.39 160.733 1221.79 158.4C1220.05 161.467 1218.39 163.733 1216.79 165.2C1215.25 166.6 1213.65 167.5 1211.99 167.9C1210.32 168.3 1208.39 168.5 1206.19 168.5ZM1225.59 150.8C1226.72 152.667 1227.92 154.3 1229.19 155.7C1230.52 157.1 1231.85 158.267 1233.19 159.2C1234.52 160.067 1235.82 160.733 1237.09 161.2C1238.42 161.6 1239.62 161.8 1240.69 161.8C1243.02 161.8 1244.72 160.967 1245.79 159.3C1246.92 157.633 1246.89 155.3 1245.69 152.3C1245.09 150.767 1244.45 149.267 1243.79 147.8C1243.19 146.333 1242.52 145 1241.79 143.8C1241.05 142.533 1240.22 141.567 1239.29 140.9C1238.35 140.167 1237.32 139.8 1236.19 139.8C1235.19 139.8 1234.12 140.133 1232.99 140.8C1231.92 141.467 1230.75 142.6 1229.49 144.2C1228.29 145.8 1226.99 148 1225.59 150.8ZM1265.48 81.8V76.2L1287.88 69.6V75.3L1265.48 81.8ZM1262.48 168.5L1263.38 160.3C1267.18 160.3 1269.85 159.933 1271.38 159.2C1272.92 158.467 1273.78 157.167 1273.98 155.3C1274.25 153.433 1274.32 150.833 1274.18 147.5L1272.48 96.6H1280.78L1282.38 147.3C1282.52 150.7 1283.05 153.367 1283.98 155.3C1284.98 157.167 1286.32 158.467 1287.98 159.2C1289.65 159.933 1291.48 160.3 1293.48 160.3C1294.88 160.3 1295.88 160.7 1296.48 161.5C1297.15 162.233 1297.48 163.133 1297.48 164.2C1297.48 165.267 1297.02 166.267 1296.08 167.2C1295.15 168.067 1293.95 168.5 1292.48 168.5C1289.68 168.5 1287.35 168.067 1285.48 167.2C1283.68 166.267 1282.25 165.1 1281.18 163.7C1280.18 162.233 1279.52 160.7 1279.18 159.1L1281.28 159.3C1280.62 161.3 1279.52 163 1277.98 164.4C1276.52 165.733 1274.52 166.767 1271.98 167.5C1269.45 168.167 1266.28 168.5 1262.48 168.5ZM1304.27 114.8L1303.37 110C1307.9 109.667 1311.57 108.967 1314.37 107.9C1317.24 106.833 1319.3 105.567 1320.57 104.1C1321.9 102.567 1322.57 101.033 1322.57 99.5C1322.57 98.3 1322.3 97.3 1321.77 96.5C1321.24 95.7 1320.44 95.3 1319.37 95.3C1318.37 95.3 1317.54 95.6667 1316.87 96.4C1316.2 97.0667 1315.87 97.9 1315.87 98.9C1315.87 100.167 1316.4 101.367 1317.47 102.5C1318.54 103.567 1319.87 104.367 1321.47 104.9L1318.37 108.1C1316.24 107.3 1314.4 106.133 1312.87 104.6C1311.4 103.067 1310.67 101.167 1310.67 98.9C1310.67 96.5667 1311.47 94.5333 1313.07 92.8C1314.74 91.0667 1316.9 90.2 1319.57 90.2C1322.24 90.2 1324.24 91.1333 1325.57 93C1326.97 94.8 1327.67 96.8667 1327.67 99.2C1327.67 102.133 1326.7 104.733 1324.77 107C1322.84 109.267 1320.1 111.067 1316.57 112.4C1313.1 113.733 1309 114.533 1304.27 114.8ZM1290.95 168.5L1291.95 160.3C1295.95 160.3 1299.72 159.933 1303.25 159.2C1306.78 158.4 1310.02 157.367 1312.95 156.1C1315.95 154.767 1318.52 153.267 1320.65 151.6C1322.78 149.867 1324.42 148.1 1325.55 146.3C1326.75 144.433 1327.35 142.6 1327.35 140.8C1327.35 139.933 1327.05 139.067 1326.45 138.2C1325.85 137.267 1324.82 136.5 1323.35 135.9C1321.95 135.3 1320.05 135 1317.65 135C1316.18 135 1314.55 135.2 1312.75 135.6C1310.95 136 1309.22 136.567 1307.55 137.3C1305.95 137.967 1304.62 138.733 1303.55 139.6C1305.35 141.067 1307.02 142.5 1308.55 143.9C1310.15 145.3 1311.78 146.833 1313.45 148.5C1315.12 150.1 1316.92 151.933 1318.85 154C1320.38 155.133 1322.08 156.1 1323.95 156.9C1325.88 157.7 1327.95 158.367 1330.15 158.9C1332.42 159.367 1334.72 159.733 1337.05 160C1339.38 160.2 1341.72 160.3 1344.05 160.3C1345.45 160.3 1346.45 160.7 1347.05 161.5C1347.72 162.233 1348.05 163.133 1348.05 164.2C1348.05 165.267 1347.58 166.267 1346.65 167.2C1345.72 168.067 1344.52 168.5 1343.05 168.5C1339.38 168.5 1335.62 168.167 1331.75 167.5C1327.95 166.767 1324.38 165.7 1321.05 164.3C1317.72 162.833 1314.88 161 1312.55 158.8C1311.42 157.333 1310.15 155.867 1308.75 154.4C1307.35 152.933 1305.82 151.467 1304.15 150C1302.55 148.467 1300.82 147.033 1298.95 145.7C1298.55 145.367 1298.15 144.767 1297.75 143.9C1297.35 143.033 1297.02 142.133 1296.75 141.2C1296.48 140.267 1296.35 139.567 1296.35 139.1C1296.35 138.1 1296.98 136.9 1298.25 135.5C1299.52 134.1 1301.22 132.767 1303.35 131.5C1305.48 130.167 1307.92 129.067 1310.65 128.2C1313.38 127.333 1316.22 126.9 1319.15 126.9C1322.95 126.9 1326.02 127.467 1328.35 128.6C1330.75 129.733 1332.48 131.2 1333.55 133C1334.68 134.733 1335.25 136.6 1335.25 138.6C1335.25 141.533 1334.52 144.467 1333.05 147.4C1331.58 150.267 1329.48 152.967 1326.75 155.5C1324.02 158.033 1320.82 160.3 1317.15 162.3C1313.48 164.233 1309.42 165.767 1304.95 166.9C1300.55 167.967 1295.88 168.5 1290.95 168.5ZM1354.33 80.2C1351.47 80.2 1349.3 79.3333 1347.83 77.6C1346.43 75.8667 1345.73 73.8333 1345.73 71.5C1345.73 69.5667 1346.1 67.8333 1346.83 66.3C1347.63 64.7 1348.73 63.4333 1350.13 62.5C1351.53 61.5 1353.1 61 1354.83 61C1356.43 61 1357.87 61.4667 1359.13 62.4C1360.4 63.3333 1361.4 64.5667 1362.13 66.1C1362.87 67.6333 1363.23 69.2667 1363.23 71C1363.23 73.6 1362.4 75.8 1360.73 77.6C1359.07 79.3333 1356.93 80.2 1354.33 80.2ZM1354.23 75C1355.37 75 1356.33 74.6333 1357.13 73.9C1358 73.1667 1358.43 72.2 1358.43 71C1358.43 69.7333 1358 68.7 1357.13 67.9C1356.27 67.0333 1355.33 66.6 1354.33 66.6C1353.07 66.6 1352.07 67.0333 1351.33 67.9C1350.67 68.7667 1350.33 69.7667 1350.33 70.9C1350.33 72.1 1350.7 73.1 1351.43 73.9C1352.17 74.6333 1353.1 75 1354.23 75ZM1341.58 168.5L1342.48 160.3C1346.28 160.3 1348.95 159.933 1350.48 159.2C1352.02 158.467 1352.88 157.167 1353.08 155.3C1353.35 153.433 1353.42 150.833 1353.28 147.5L1351.38 96.6H1359.48L1361.48 146.6C1361.62 150.133 1361.48 153.267 1361.08 156C1360.75 158.733 1359.88 161.033 1358.48 162.9C1357.15 164.767 1355.12 166.167 1352.38 167.1C1349.72 168.033 1346.12 168.5 1341.58 168.5ZM1366.7 81.8V76.2L1389.1 69.6V75.3L1366.7 81.8ZM1375.25 168L1373.25 96.6H1381.35L1383.35 168H1375.25Z" fill="#072122" fill-opacity="0.5"/>
    </g>
    <defs>
        <clipPath id="clip0_248_2059">
            <rect width="1440" height="245" fill="white"/>
        </clipPath>
    </defs>
</svg>
