<svg width="107" height="19" viewBox="0 0 107 19" fill="none" xmlns="http://www.w3.org/2000/svg">
    <path d="M14.816 11.3999C14.816 13.0799 14.528 14.4239 13.952 15.4319C13.376 16.4399 12.552 17.1599 11.48 17.5919C10.408 18.0239 9.12799 18.2399 7.63999 18.2399C5.89599 18.2399 4.49599 17.9679 3.43999 17.4239C2.39999 16.8639 1.63999 16.0479 1.15999 14.9759C0.695989 13.8879 0.463989 12.5519 0.463989 10.9679V0.671894C0.463989 0.351894 0.591989 0.191895 0.847989 0.191895H4.30399C4.54399 0.191895 4.66399 0.335895 4.66399 0.623895V11.4959C4.66399 12.8079 4.94399 13.7599 5.50399 14.3519C6.07999 14.9439 6.89599 15.2399 7.95199 15.2399C8.62399 15.2399 9.21599 15.1199 9.72799 14.8799C10.24 14.6239 10.64 14.2159 10.928 13.6559C11.216 13.0959 11.36 12.3519 11.36 11.4239V0.647894C11.36 0.343894 11.48 0.191895 11.72 0.191895H14.456C14.696 0.191895 14.816 0.335895 14.816 0.623895V11.3999Z" fill="#EEFBFC"/>
    <path d="M17.9769 0.647894C17.9769 0.343894 18.1049 0.191895 18.3609 0.191895H21.7929C22.0489 0.191895 22.1769 0.335895 22.1769 0.623895V14.6159C22.1769 14.8239 22.2649 14.9279 22.4409 14.9279H30.0969C30.3849 14.9279 30.5289 15.0479 30.5289 15.2879V17.5679C30.5289 17.6959 30.4889 17.7999 30.4089 17.8799C30.3449 17.9599 30.2329 17.9999 30.0729 17.9999H18.5049C18.2969 17.9999 18.1529 17.9599 18.0729 17.8799C18.0089 17.7999 17.9769 17.6719 17.9769 17.4959V0.647894Z" fill="#EEFBFC"/>
    <path d="M31.9098 17.9999C31.7658 17.9999 31.6618 17.9359 31.5978 17.8079C31.5338 17.6799 31.5338 17.5119 31.5978 17.3039L37.5738 0.671894C37.6378 0.495894 37.7098 0.375895 37.7898 0.311894C37.8698 0.231894 38.0058 0.191895 38.1978 0.191895H41.7978C42.1498 0.191895 42.3898 0.367895 42.5178 0.719895L48.4458 17.3519C48.4938 17.4799 48.4938 17.6239 48.4458 17.7839C48.3978 17.9279 48.3018 17.9999 48.1578 17.9999H44.6298C44.3898 17.9999 44.2378 17.8879 44.1738 17.6639L42.9258 14.1599C42.9098 14.0799 42.8778 14.0159 42.8298 13.9679C42.7978 13.9199 42.7258 13.8959 42.6138 13.8959H36.7578C36.5978 13.8959 36.4938 13.9759 36.4458 14.1359L35.1738 17.6879C35.1418 17.7839 35.0858 17.8639 35.0058 17.9279C34.9418 17.9759 34.8298 17.9999 34.6698 17.9999H31.9098ZM41.6298 10.7039C41.8538 10.7039 41.9258 10.5679 41.8458 10.2959L39.8298 4.6799C39.7818 4.58389 39.7258 4.53589 39.6618 4.53589C39.6138 4.53589 39.5658 4.59189 39.5178 4.7039L37.4778 10.2959C37.3658 10.5679 37.4378 10.7039 37.6938 10.7039H41.6298Z" fill="#EEFBFC"/>
    <path d="M48.9254 17.9999C48.7814 17.9999 48.6774 17.9359 48.6134 17.8079C48.5494 17.6799 48.5494 17.5119 48.6134 17.3039L54.5894 0.671894C54.6534 0.495894 54.7254 0.375895 54.8054 0.311894C54.8854 0.231894 55.0214 0.191895 55.2134 0.191895H58.8134C59.1654 0.191895 59.4054 0.367895 59.5334 0.719895L65.4614 17.3519C65.5094 17.4799 65.5094 17.6239 65.4614 17.7839C65.4134 17.9279 65.3174 17.9999 65.1734 17.9999H61.6454C61.4054 17.9999 61.2534 17.8879 61.1894 17.6639L59.9414 14.1599C59.9254 14.0799 59.8934 14.0159 59.8454 13.9679C59.8134 13.9199 59.7414 13.8959 59.6294 13.8959H53.7734C53.6134 13.8959 53.5094 13.9759 53.4614 14.1359L52.1894 17.6879C52.1574 17.7839 52.1014 17.8639 52.0214 17.9279C51.9574 17.9759 51.8454 17.9999 51.6854 17.9999H48.9254ZM58.6454 10.7039C58.8694 10.7039 58.9414 10.5679 58.8614 10.2959L56.8454 4.6799C56.7974 4.58389 56.7414 4.53589 56.6774 4.53589C56.6294 4.53589 56.5814 4.59189 56.5334 4.7039L54.4934 10.2959C54.3814 10.5679 54.4534 10.7039 54.7094 10.7039H58.6454Z" fill="#EEFBFC"/>
    <path d="M68.4731 17.9999C68.1371 17.9999 67.9691 17.8159 67.9691 17.4479V0.647894C67.9691 0.343894 68.105 0.191895 68.3771 0.191895H73.3451C73.5211 0.191895 73.649 0.215895 73.729 0.263895C73.8091 0.311894 73.8731 0.407894 73.9211 0.551894L77.5451 10.6079C77.593 10.7519 77.649 10.8239 77.7131 10.8239C77.7771 10.8079 77.8331 10.7359 77.8811 10.6079L81.3371 0.743895C81.4331 0.375895 81.6091 0.191895 81.8651 0.191895H87.0251C87.2651 0.191895 87.3851 0.335895 87.3851 0.623895V17.4239C87.3851 17.8079 87.1851 17.9999 86.785 17.9999H83.689C83.497 17.9999 83.3611 17.9599 83.2811 17.8799C83.2171 17.7999 83.1851 17.6799 83.1851 17.5199V5.5679C83.1851 5.45589 83.1531 5.40789 83.0891 5.42389C83.041 5.42389 83.0011 5.47989 82.9691 5.5919L78.7691 17.6159C78.673 17.8719 78.5051 17.9999 78.2651 17.9999H76.273C76.001 17.9999 75.8251 17.8719 75.745 17.6159L71.5931 5.75989C71.5451 5.61589 71.4891 5.55189 71.425 5.5679C71.3771 5.5839 71.3531 5.6559 71.3531 5.7839V17.5679C71.3531 17.7279 71.3211 17.8399 71.257 17.9039C71.2091 17.9679 71.0971 17.9999 70.9211 17.9999H68.4731Z" fill="#EEFBFC"/>
    <path d="M90.2223 17.9999C90.0783 17.9999 89.9743 17.9359 89.9103 17.8079C89.8463 17.6799 89.8463 17.5119 89.9103 17.3039L95.8863 0.671894C95.9503 0.495894 96.0223 0.375895 96.1023 0.311894C96.1823 0.231894 96.3183 0.191895 96.5103 0.191895H100.11C100.462 0.191895 100.702 0.367895 100.83 0.719895L106.758 17.3519C106.806 17.4799 106.806 17.6239 106.758 17.7839C106.71 17.9279 106.614 17.9999 106.47 17.9999H102.942C102.702 17.9999 102.55 17.8879 102.486 17.6639L101.238 14.1599C101.222 14.0799 101.19 14.0159 101.142 13.9679C101.11 13.9199 101.038 13.8959 100.926 13.8959H95.0703C94.9103 13.8959 94.8063 13.9759 94.7583 14.1359L93.4863 17.6879C93.4543 17.7839 93.3983 17.8639 93.3183 17.9279C93.2543 17.9759 93.1423 17.9999 92.9823 17.9999H90.2223ZM99.9423 10.7039C100.166 10.7039 100.238 10.5679 100.158 10.2959L98.1423 4.6799C98.0943 4.58389 98.0383 4.53589 97.9743 4.53589C97.9263 4.53589 97.8783 4.59189 97.8303 4.7039L95.7903 10.2959C95.6783 10.5679 95.7503 10.7039 96.0063 10.7039H99.9423Z" fill="#EEFBFC"/>
</svg>
